<?xml version="1.0" standalone="no"?>
<!DOCTYPE svg PUBLIC "-//W3C//DTD SVG 20010904//EN"
 "http://www.w3.org/TR/2001/REC-SVG-20010904/DTD/svg10.dtd">
<svg version="1.0" xmlns="http://www.w3.org/2000/svg"
 width="508.000000pt" height="106.000000pt" viewBox="0 0 508.000000 106.000000"
 preserveAspectRatio="xMidYMid meet">

<g transform="translate(0.000000,106.000000) scale(0.100000,-0.100000)"
fill="#482280" stroke="none">
<path d="M2300 530 l0 -530 1385 0 1385 0 0 530 0 530 -1385 0 -1385 0 0 -530z
m2740 0 l0 -490 -1355 0 -1355 0 0 490 0 490 1355 0 1355 0 0 -490z"/>
<path d="M2563 920 c-41 -24 -50 -42 -69 -136 -28 -134 -11 -160 141 -220 77
-31 100 -53 78 -75 -6 -6 -59 1 -136 17 -70 15 -129 25 -132 23 -10 -10 -32
-127 -26 -137 9 -16 274 -72 336 -72 99 0 149 63 162 207 5 48 2 68 -11 88
-18 27 -83 63 -163 89 -55 18 -74 43 -49 62 12 8 40 6 117 -12 56 -12 107 -20
113 -18 16 6 42 133 30 143 -14 13 -264 61 -314 61 -27 0 -58 -8 -77 -20z"/>
<path d="M4585 908 c-77 -17 -144 -34 -149 -38 -9 -9 100 -547 115 -572 6 -10
26 -9 90 5 45 9 85 19 87 22 3 3 -2 40 -11 82 -9 42 -15 78 -14 79 2 2 36 10
77 19 88 19 127 39 157 85 27 40 29 81 7 181 -20 91 -44 132 -88 153 -48 22
-109 19 -271 -16z m165 -143 c19 -23 29 -82 16 -99 -6 -8 -30 -19 -53 -25
l-43 -9 -9 37 c-6 20 -11 49 -13 66 -3 27 0 30 32 36 55 10 57 10 70 -6z"/>
<path d="M3116 841 c-5 -8 -12 -83 -42 -493 -7 -86 -7 -87 17 -92 59 -12 149
-14 158 -2 5 6 13 55 17 110 l7 98 30 -6 c16 -3 48 -6 70 -6 l40 0 -6 -104
c-4 -62 -3 -107 3 -111 17 -11 167 -18 173 -8 9 14 50 560 44 577 -7 19 -167
33 -177 15 -4 -6 -11 -54 -15 -105 -8 -106 -2 -101 -100 -87 l-48 6 7 102 c6
101 6 103 -16 109 -36 9 -156 7 -162 -3z"/>
<path d="M3960 839 c-74 -12 -140 -48 -164 -88 -18 -32 -19 -41 -7 -219 7
-102 18 -200 25 -216 28 -66 91 -95 208 -96 139 0 242 34 279 93 19 30 20 42
14 179 -10 228 -17 267 -58 304 -54 50 -160 65 -297 43z m138 -167 c15 -15 20
-42 26 -143 6 -111 5 -125 -10 -136 -24 -18 -99 -17 -113 1 -7 8 -16 70 -22
138 -9 119 -9 124 12 141 28 23 84 22 107 -1z"/>
<path d="M1930 921 c-147 -32 -173 -44 -230 -108 -72 -81 -100 -132 -100 -182
0 -64 49 -310 71 -352 24 -48 70 -86 122 -100 34 -9 64 -7 182 15 l140 25 42
48 c65 75 69 84 56 160 -7 36 -16 70 -22 76 -8 8 -34 7 -88 -3 -43 -8 -96 -14
-118 -15 l-39 0 -13 60 c-19 94 -20 92 40 100 47 7 57 13 105 64 29 31 55 66
58 78 7 25 -13 132 -28 151 -14 16 -32 15 -178 -17z m189 -59 c7 -36 9 -68 5
-72 -5 -5 -52 -16 -104 -25 -134 -23 -136 -25 -110 -150 29 -144 28 -143 48
-149 10 -3 64 2 120 13 119 21 115 23 127 -71 8 -66 27 -55 -155 -89 -167 -31
-240 -17 -276 53 -17 33 -73 305 -74 356 0 51 25 98 67 126 42 28 241 76 303
73 34 -2 35 -3 49 -65z"/>
<path d="M1990 848 c-25 -5 -68 -13 -97 -19 -66 -13 -103 -46 -103 -93 0 -19
12 -97 27 -173 38 -200 53 -212 231 -177 45 9 82 21 82 26 0 4 -10 6 -22 4
-157 -33 -209 -35 -236 -6 -22 23 -78 304 -69 342 9 34 50 53 154 73 51 10 90
21 87 26 -3 5 -6 9 -7 8 -1 -1 -22 -5 -47 -11z"/>
<path d="M173 889 c-40 -22 -74 -48 -77 -57 -10 -34 -96 -532 -96 -557 0 -34
13 -38 224 -75 207 -36 215 -36 332 31 87 50 105 76 123 182 13 78 2 138 -29
160 -19 13 -19 14 2 56 13 27 21 64 22 101 1 49 -3 62 -24 85 -14 15 -38 34
-54 42 -23 12 -158 40 -321 68 -22 3 -48 -6 -102 -36z m243 -5 c169 -29 219
-50 240 -99 24 -58 -4 -162 -51 -183 -20 -10 -20 -10 0 -17 47 -18 65 -46 65
-101 0 -133 -41 -211 -116 -221 -39 -5 -400 52 -416 66 -7 6 87 554 98 572 7
13 17 12 180 -17z"/>
<path d="M305 808 c-3 -13 -21 -113 -40 -222 -26 -145 -33 -201 -25 -206 7 -4
58 -15 114 -24 184 -30 207 -26 226 43 22 78 4 161 -36 161 -18 0 -18 9 1 30
8 9 20 42 25 72 19 101 -5 124 -158 153 -99 19 -101 19 -107 -7z m130 -13
c109 -21 125 -33 124 -93 -2 -117 -25 -131 -173 -106 l-103 16 8 42 c4 22 13
67 19 99 13 65 9 64 125 42z m5 -224 c128 -23 146 -38 135 -116 -8 -61 -27
-93 -61 -101 -14 -4 -72 1 -128 11 -160 27 -145 16 -130 93 6 37 15 84 18 104
6 34 9 37 34 32 15 -2 74 -13 132 -23z"/>
<path d="M385 705 c-4 -25 -5 -48 -2 -51 3 -3 27 -6 54 -7 l48 -2 3 42 c3 44
3 44 -65 58 -31 6 -32 6 -38 -40z"/>
<path d="M345 486 c-4 -24 -4 -49 -1 -54 3 -5 31 -13 61 -17 67 -8 85 3 85 51
0 39 -12 46 -92 58 l-47 7 -6 -45z"/>
<path d="M1069 832 c-32 -14 -127 -97 -139 -122 -7 -14 -33 -81 -58 -150 l-45
-125 2 -155 c1 -108 5 -157 14 -162 7 -4 46 -8 87 -8 l76 0 67 56 c40 33 67
63 67 75 0 10 5 19 10 19 6 0 10 -28 10 -65 0 -61 2 -66 26 -75 14 -6 54 -10
89 -10 62 0 66 1 127 52 35 29 67 57 71 62 4 6 6 76 4 156 l-4 145 -53 139
c-30 77 -62 148 -72 158 -15 15 -35 18 -140 17 -68 0 -130 -3 -139 -7z m278
-24 c6 -7 33 -71 60 -143 49 -126 50 -134 57 -267 9 -181 10 -180 -97 -176
l-82 3 -3 73 -3 72 -74 0 -75 0 0 -59 c0 -91 0 -91 -95 -91 l-82 0 -7 110 c-4
68 -3 132 4 171 13 72 96 300 113 311 21 14 273 9 284 -4z"/>
<path d="M1112 723 c-10 -16 -33 -68 -50 -116 -30 -82 -32 -96 -30 -205 1 -85
3 -97 5 -44 l4 72 149 0 c81 0 155 3 164 6 13 5 16 -7 19 -68 2 -40 3 -19 2
47 -1 115 -3 124 -38 204 -58 133 -56 131 -137 131 -64 0 -70 -2 -88 -27z
m159 -5 c29 -32 85 -167 93 -222 l7 -46 -167 0 -167 0 6 43 c8 57 73 219 94
235 9 6 39 12 66 12 38 0 53 -5 68 -22z"/>
<path d="M1174 657 c-2 -7 -13 -41 -23 -75 l-19 -62 68 0 69 0 -21 63 c-11 34
-25 68 -31 75 -12 16 -36 16 -43 -1z"/>
</g>
</svg>
